<svg
  width="12"
  height="8"
  viewBox="0 0 12 8"
  fill="none"
  xmlns="http://www.w3.org/2000/svg"
>
    <path
    d="M6.54986 0.340979L11.3459 5.82298C11.9119 6.46798 11.4519 7.48098 10.5929 7.48098L1.00086 7.48098C0.80862 7.48114 0.620402 7.42589 0.458752 7.32184C0.297101 7.21779 0.16887 7.06934 0.0894146 6.89429C0.00995873 6.71923 -0.0173539 6.52498 0.0107479 6.3348C0.0388497 6.14462 0.121175 5.96657 0.247864 5.82198L5.04386 0.34198C5.13773 0.23457 5.25348 0.148484 5.38335 0.0895C5.51323 0.0305162 5.65422 -4.76837e-07 5.79686 -4.76837e-07C5.93951 -4.76837e-07 6.0805 0.0305162 6.21037 0.0895C6.34025 0.148484 6.456 0.23457 6.54986 0.34198V0.340979Z"
    fill="#19B600"
  />
    </svg>
